<svg width="198" height="72" fill="none" xmlns="http://www.w3.org/2000/svg"><g filter="url(#a)"><rect x="21.502" y="33.73" width="33.034" height="6" rx="3" transform="rotate(-32.46 21.502 33.73)" fill="#00447B"/></g><g filter="url(#b)"><rect x="20.419" y="3" width="36" height="6" rx="3" transform="rotate(23.78 20.42 3)" fill="#00447B"/></g><g filter="url(#c)"><rect x="30.088" y="3.375" width="36" height="6" rx="3" transform="rotate(103.244 30.088 3.375)" fill="#00447B"/></g><g filter="url(#d)"><rect x="13" y="59.322" width="36" height="6" rx="3" transform="rotate(-32.46 13 59.322)" fill="#00447B"/></g><g filter="url(#e)"><rect x="14.419" y="27" width="36" height="6" rx="3" transform="rotate(23.78 14.42 27)" fill="#00447B"/></g><g filter="url(#f)"><rect x="24.088" y="27.375" width="36" height="6" rx="3" transform="rotate(103.244 24.088 27.375)" fill="#00447B"/></g><g filter="url(#g)"><path d="m55 56.4 2.4-.6V30.2l-2.4-.6V29h10.6c4.533 0 7.8.693 9.8 2.08 2 1.36 3 3.267 3 5.72 0 1.653-.44 3-1.32 4.04-.88 1.013-2.013 1.773-3.4 2.28-1.467.56-3.027.853-4.68.88v.2c.987.053 1.853.2 2.6.44 1.867.587 3.133 1.64 3.8 3.16l3.6 8 2 .6v.6h-5.6c-2.187 0-3.787-1.133-4.8-3.4l-4-9H64v11.2l2.8.6v.6H55v-.6Zm10.6-12.8c1.867 0 3.333-.587 4.4-1.76 1.067-1.173 1.6-2.853 1.6-5.04s-.533-3.867-1.6-5.04C68.933 30.587 67.467 30 65.6 30H64v13.6h1.6Zm14.608 12.8 3.2-1.2 11-26.6h1.2l11.4 27.2 2 .6v.6h-4.8c-1.387 0-2.52-.307-3.4-.92a5.782 5.782 0 0 1-1.96-2.48l-2.04-4.8h-9.56l-2.64 6.4 3 1.2v.6h-7.4v-.6Zm7.44-8.6h8.76l-4.4-10.52-4.36 10.52Zm19.13-17.6-2-.6V29h4.8c1.387 0 2.52.32 3.4.96a5.792 5.792 0 0 1 2 2.44l7.08 16.12 6.52-17.72-3-1.2V29h7.4v.6l-3.2 1.2-9.8 26.6h-1.2l-12-27.2Zm38.991 27.4c-2.614 0-4.907-.56-6.88-1.68-1.947-1.147-3.454-2.813-4.52-5-1.067-2.187-1.6-4.827-1.6-7.92s.533-5.733 1.6-7.92c1.066-2.187 2.573-3.84 4.52-4.96 1.973-1.147 4.266-1.72 6.88-1.72 2.613 0 4.893.573 6.84 1.72 1.973 1.12 3.493 2.773 4.56 4.96 1.066 2.187 1.6 4.827 1.6 7.92s-.534 5.733-1.6 7.92c-1.067 2.187-2.587 3.853-4.56 5-1.947 1.12-4.227 1.68-6.84 1.68Zm0-.8c1.04 0 2-.44 2.88-1.32.906-.88 1.653-2.347 2.24-4.4.586-2.053.88-4.747.88-8.08s-.294-6.027-.88-8.08c-.587-2.053-1.334-3.52-2.24-4.4-.88-.88-1.84-1.32-2.88-1.32-1.04 0-2.014.44-2.92 1.32-.88.88-1.614 2.347-2.2 4.4-.587 2.053-.88 4.747-.88 8.08s.293 6.027.88 8.08c.586 2.053 1.32 3.52 2.2 4.4.906.88 1.88 1.32 2.92 1.32Zm17.609-18.4c.56-.187 1.12-.493 1.68-.92 1.147-.853 1.853-2.013 2.12-3.48l-.52.32c-.347.187-.773.28-1.28.28-.8 0-1.507-.293-2.12-.88-.587-.613-.88-1.32-.88-2.12s.293-1.493.88-2.08c.613-.613 1.32-.92 2.12-.92.933 0 1.693.333 2.28 1 .613.64.92 1.507.92 2.6 0 2.453-.8 4.373-2.4 5.76a6.863 6.863 0 0 1-2.4 1.44l-.4-1Zm18.805 19.2a11.43 11.43 0 0 1-5.32-1.28c-.747-.373-1.374-.813-1.88-1.32a6.84 6.84 0 0 1-1.4 1.64c-.48.347-.747.533-.8.56h-1v-7.6h1.6c.4 1.307.96 2.48 1.68 3.52 1.626 2.32 3.733 3.48 6.32 3.48 1.52 0 2.733-.453 3.64-1.36.906-.907 1.36-2.12 1.36-3.64 0-.88-.267-1.667-.8-2.36a7.921 7.921 0 0 0-1.92-1.84c-.774-.533-1.854-1.2-3.24-2-1.76-.987-3.187-1.88-4.28-2.68-1.094-.8-2.027-1.8-2.8-3-.774-1.227-1.16-2.667-1.16-4.32 0-1.307.36-2.48 1.08-3.52.746-1.067 1.853-1.907 3.32-2.52 1.466-.64 3.266-.96 5.4-.96 1.546 0 3.093.44 4.64 1.32.586.32 1.173.747 1.76 1.28.453-.693.92-1.24 1.4-1.64.48-.347.746-.533.8-.56h1v7.6h-1.6a11.788 11.788 0 0 0-1.56-3.48 8.663 8.663 0 0 0-2.4-2.52c-.934-.667-2.014-1-3.24-1-1.04 0-1.934.413-2.68 1.24-.747.827-1.12 1.88-1.12 3.16 0 .987.28 1.88.84 2.68a9.623 9.623 0 0 0 2.12 2.04c.853.587 2 1.293 3.44 2.12 1.68.96 3.04 1.813 4.08 2.56 1.04.747 1.92 1.68 2.64 2.8.72 1.093 1.08 2.36 1.08 3.8s-.414 2.76-1.24 3.96c-.827 1.173-2.067 2.107-3.72 2.8-1.654.693-3.667 1.04-6.04 1.04Z" fill="#00447B"/></g><defs><filter id="a" x="18.643" y="17.141" width="36.811" height="28.511" filterUnits="userSpaceOnUse" color-interpolation-filters="sRGB"><feFlood flood-opacity="0" result="BackgroundImageFix"/><feColorMatrix in="SourceAlpha" values="0 0 0 0 0 0 0 0 0 0 0 0 0 0 0 0 0 0 127 0" result="hardAlpha"/><feOffset dy="4"/><feGaussianBlur stdDeviation="2"/><feComposite in2="hardAlpha" operator="out"/><feColorMatrix values="0 0 0 0 0 0 0 0 0 0 0 0 0 0 0 0 0 0 0.25 0"/><feBlend in2="BackgroundImageFix" result="effect1_dropShadow_6_45"/><feBlend in="SourceGraphic" in2="effect1_dropShadow_6_45" result="shape"/></filter><filter id="b" x="14.954" y="3.954" width="41.455" height="26.098" filterUnits="userSpaceOnUse" color-interpolation-filters="sRGB"><feFlood flood-opacity="0" result="BackgroundImageFix"/><feColorMatrix in="SourceAlpha" values="0 0 0 0 0 0 0 0 0 0 0 0 0 0 0 0 0 0 127 0" result="hardAlpha"/><feOffset dy="4"/><feGaussianBlur stdDeviation="2"/><feComposite in2="hardAlpha" operator="out"/><feColorMatrix values="0 0 0 0 0 0 0 0 0 0 0 0 0 0 0 0 0 0 0.25 0"/><feBlend in2="BackgroundImageFix" result="effect1_dropShadow_6_45"/><feBlend in="SourceGraphic" in2="effect1_dropShadow_6_45" result="shape"/></filter><filter id="c" x="12.607" y="2.607" width="20.874" height="43.203" filterUnits="userSpaceOnUse" color-interpolation-filters="sRGB"><feFlood flood-opacity="0" result="BackgroundImageFix"/><feColorMatrix in="SourceAlpha" values="0 0 0 0 0 0 0 0 0 0 0 0 0 0 0 0 0 0 127 0" result="hardAlpha"/><feOffset dy="4"/><feGaussianBlur stdDeviation="2"/><feComposite in2="hardAlpha" operator="out"/><feColorMatrix values="0 0 0 0 0 0 0 0 0 0 0 0 0 0 0 0 0 0 0.25 0"/><feBlend in2="BackgroundImageFix" result="effect1_dropShadow_6_45"/><feBlend in="SourceGraphic" in2="effect1_dropShadow_6_45" result="shape"/></filter><filter id="d" x="10.141" y="41.141" width="39.314" height="30.102" filterUnits="userSpaceOnUse" color-interpolation-filters="sRGB"><feFlood flood-opacity="0" result="BackgroundImageFix"/><feColorMatrix in="SourceAlpha" values="0 0 0 0 0 0 0 0 0 0 0 0 0 0 0 0 0 0 127 0" result="hardAlpha"/><feOffset dy="4"/><feGaussianBlur stdDeviation="2"/><feComposite in2="hardAlpha" operator="out"/><feColorMatrix values="0 0 0 0 0 0 0 0 0 0 0 0 0 0 0 0 0 0 0.25 0"/><feBlend in2="BackgroundImageFix" result="effect1_dropShadow_6_45"/><feBlend in="SourceGraphic" in2="effect1_dropShadow_6_45" result="shape"/></filter><filter id="e" x="8.954" y="27.954" width="41.455" height="26.098" filterUnits="userSpaceOnUse" color-interpolation-filters="sRGB"><feFlood flood-opacity="0" result="BackgroundImageFix"/><feColorMatrix in="SourceAlpha" values="0 0 0 0 0 0 0 0 0 0 0 0 0 0 0 0 0 0 127 0" result="hardAlpha"/><feOffset dy="4"/><feGaussianBlur stdDeviation="2"/><feComposite in2="hardAlpha" operator="out"/><feColorMatrix values="0 0 0 0 0 0 0 0 0 0 0 0 0 0 0 0 0 0 0.25 0"/><feBlend in2="BackgroundImageFix" result="effect1_dropShadow_6_45"/><feBlend in="SourceGraphic" in2="effect1_dropShadow_6_45" result="shape"/></filter><filter id="f" x="6.607" y="26.607" width="20.874" height="43.203" filterUnits="userSpaceOnUse" color-interpolation-filters="sRGB"><feFlood flood-opacity="0" result="BackgroundImageFix"/><feColorMatrix in="SourceAlpha" values="0 0 0 0 0 0 0 0 0 0 0 0 0 0 0 0 0 0 127 0" result="hardAlpha"/><feOffset dy="4"/><feGaussianBlur stdDeviation="2"/><feComposite in2="hardAlpha" operator="out"/><feColorMatrix values="0 0 0 0 0 0 0 0 0 0 0 0 0 0 0 0 0 0 0.25 0"/><feBlend in2="BackgroundImageFix" result="effect1_dropShadow_6_45"/><feBlend in="SourceGraphic" in2="effect1_dropShadow_6_45" result="shape"/></filter><filter id="g" x="51" y="28.4" width="146.183" height="37.2" filterUnits="userSpaceOnUse" color-interpolation-filters="sRGB"><feFlood flood-opacity="0" result="BackgroundImageFix"/><feColorMatrix in="SourceAlpha" values="0 0 0 0 0 0 0 0 0 0 0 0 0 0 0 0 0 0 127 0" result="hardAlpha"/><feOffset dy="4"/><feGaussianBlur stdDeviation="2"/><feComposite in2="hardAlpha" operator="out"/><feColorMatrix values="0 0 0 0 0 0 0 0 0 0 0 0 0 0 0 0 0 0 0.25 0"/><feBlend in2="BackgroundImageFix" result="effect1_dropShadow_6_45"/><feBlend in="SourceGraphic" in2="effect1_dropShadow_6_45" result="shape"/></filter></defs></svg>